<?xml version="1.0" encoding="utf-8"?>
<!-- Generator: Adobe Illustrator 23.0.6, SVG Export Plug-In . SVG Version: 6.00 Build 0)  -->
<svg version="1.1" id="Layer_1" xmlns="http://www.w3.org/2000/svg" xmlns:xlink="http://www.w3.org/1999/xlink" x="0px" y="0px"
   viewBox="0 0 418.7 261.3" style="enable-background:new 0 0 418.7 261.3;" xml:space="preserve">
<style type="text/css">
  .st0{fill:#FFFFFF;}
</style>
<g id="Rectangle-path">
</g>
<path class="st0" d="M322.5,211.1c-1.1,2.2-2.2,3.9-3.5,0.9c-1.2-2.6-2-5.3-2.5-8.1c-1.8-10.4-9.2-14.5-18.5-16.5
  c-5.8-1.2-11.8-1.7-17.5-3c-6.1-1.4-12-3.4-18-5.2c-3.1-0.9-6.1-1.4-7.7,2.6c1.6,2.5,6.2,1.7,6.2,6.5c-3-1.2-6.2-2.1-9.1-3.6
  c-2.4-1.2-1.1-3.3-0.1-4.6c2.9-3.8,6.1-7.4,9.5-10.7c5.2-4.8,10.8-9.2,16.6-14.1c-8.2-3.9-16.5-7.5-25.3-9.6
  c-12.3-3-24.7-6.1-37.7-5.2c-2.1,0.1-3.6-0.3-3.4-2.8c0.5-5.6-2.8-9.5-6-13.5c-0.7-0.9-1.4-3-1-3.4c4.9-4.2,2.9-9,1.5-13.7
  c-0.6-1.5-0.8-3.2-0.5-4.8c1.1,0.8,2.7,1.2,3.4,2.3c3.2,5.1,5.9,10.5,5.4,16.9c-0.1,1.4,1,3,1.6,4.5c1.3-1,3.3-1.8,3.9-3.1
  c0.7-2.1,1-4.4,0.7-6.6c-0.4-6.1-0.4-5.8,5.1-7.9c9.5-3.7,19-7.4,28.2-11.9c4.1-2,7.6-5.4,10.6-8.8c5.7-6.5,3.5-14.2-5.4-18.5
  c-9.8-4.6-20.7-6.4-31.5-5.1c-4.4,0.6-8.8,1.5-13.1,2.8c-2.9,0.8-4,0.3-4.9-2.7c-2.6-7.9-5.1-15.9-8.8-23.2
  c-2.5-4.9-6.6-9.1-10.6-13.1c-3.2-3.2-7.6-3.3-11.5-0.9c-6.1,3.8-12.6,4.7-19.7,4c-4.8-0.4-9.7,0-14.6-0.2
  c-10.8-0.3-17.2,5.6-19.5,16.1c-1.2,5.8-1.4,11.9-2,17.8c-0.4,3.8-1,7.6-1.3,11.5c-0.1,1.3,0.2,2.7,1,3.8c5.2,6.1,3.1,12.7-4.8,14.3
  c-4.6,0.9-9.1,2-13.7,2.8c-5.2,0.9-10,2.4-13.8,6.5c-1.3,1.4-4.2,1.8-6.4,1.8c-1.8,0-3.8-1.2-4.2,1.5c-0.3,2.1,0.1,4.3,2.6,5.3
  c0.5,0.2,1,0.3,1.6,0.4c11.6,1.2,22.8,5.3,34.7,4.9c2.5-0.1,4.9,0,7.3,0c2,3.1,4.3,6.6,6.5,10.1l1.4-0.6c-0.4-1.8-0.7-3.6-1.1-5.4
  c-1-5.1,1.8-8.7,7.1-9c2.2-0.1,3.7,0.4,3.1,2.9c-0.9,4,1.1,5.1,4.7,6.7c7.4,3.1,14.4,1.8,21.5,0.2c2.1-0.5,3.4-0.4,4.2,1.8
  c0.8,2.4,1.9,4.7,3.1,7.8l8.5-2.3l0.4,1.3c-3.3,2.5-7.7,2.9-11.4,3.9c-5,1.2-5.6-5-8.9-7.2c-3.9,5.6-3.6,8.5,1,11.7
  c-2.5,2.8-5.1,5.6-7.6,8.5c-1.5,1.8-1.7,3.4-0.4,5.7c2.6,4.5,4.2,9.8,10.2,11.6c0.9,0.5,1.5,1.4,1.6,2.4c-0.2,1-1,1.8-1.9,2.1
  c-1.5,0.2-3.1,0.1-4.5-0.3c-1.5-0.5-2.8-1.9-4.2-2.1c-2-0.2-4.1,0.3-6.2,0.5c0.3,1.6,0.7,3.2,1,4.9c0.3,1.5,0.5,3,0.8,4.4l-1.2,0.6
  c-1.4-1.7-2.8-3.4-4.1-5.1c-0.7-1-1.1-2.2-1.9-3.2c-3.1-3.9-6.3-7.7-5.3-14.5c-5.6,2.8-10.3,4.6-14.4,7.2
  c-7.3,4.5-14.3,9.5-21.4,14.3c-2.2,1.5-4.5,2.9-6.8,4.3c-4.4,2.8-4.8,3.3-1.5,7.3c6.1,7.3,6.6,16.5,9.8,26.1
  c-5.3-3.4-8.3-1.7-10.8,2.2c-0.6,0.7-1.4,1.1-2.3,1.1c-6.2-0.1-10.5,4-15.4,6.7c-0.5,0.2-1,0.7-1.1,1.1c-0.5,5.8-6.4,6.4-9.6,9.5
  c-1.3,1.3-3.9,2-6,2.1c-6.6,0.3-13.3,0.2-20,0.3c-3.2,0.1-4.5-1.6-4.5-4.6c-0.1-5.6-0.2-11.3-0.5-16.9c-0.6-11.4-1.4-22.8-2-34.3
  c-0.5-10-0.7-20.1-1.3-30.1c-0.3-3.5-0.8-7-1.5-10.4c-0.4-2.4-1.2-4.9-1.2-7.3c-0.3-16.8-2.2-33.4-4-50c-0.2-1.2-0.6-2.3-1.1-3.4
  c-0.2-0.8-1.2-1.7-1-2.3c2.2-6.8-0.9-13-2.3-19.3c-0.5-2-2.8-5.3,2-5.8c0.1,0,0.3-0.6,0.3-1c-0.4-4.2-0.9-8.4-1.5-12.5
  c-0.9-0.2-1.8-0.3-2.7-0.3c-0.5-3.1-1.5-7.1-1.6-11.2c-0.1-5.4,2.7-7.6,8.1-7.5c10.2,0.2,20.5,0.3,30.8,0.7
  c9.7,0.3,19.4,1.4,29.1,1.2c8.4-0.1,16.7,0.4,25.2-0.8s17.5-0.2,26.2,0.3c4.6,0.3,4.6,0.8,5.2,6.4c5.1,0,10.3-0.3,15.4,0.1
  c6.7,0.6,12.6-0.5,18.3-4.4c4.9-3.4,13.5-1,18,4c5.4,6.2,9.7,13.2,12.7,20.8c1.6,3.9,3.1,7.9,4.4,11.9c0.7,2.1,1.7,2.8,3.9,2.5
  c3.8-0.4,7.5-0.5,11.3-1c8.8-1,17.7-0.3,26.2,2c1.1,0.2,2.2,0.2,3.3,0.2c-0.1-0.3-0.2-0.6-0.3-0.9c-1.4-5.5-3.5-10.8-6.2-15.8
  c-0.9-1.8,0.2-4.8,0.7-7.2c0.6-2.4-0.3-3.4-2.5-3.6c-1.1-0.1-2.2-0.1-3.2-0.3c-1.1,0-2.1-0.5-2.9-1.3c-0.8-0.8-1.2-1.9-1.1-2.9
  c-0.1-0.9-0.1-1.8-0.1-2.7c0.1-6.9,0.6-7.4,7.7-7.5c3.2-0.1,6.5,0,9.7,0.1c2.9,0.1,4.6,1.2,4.7,4.5c0.1,4.1,1.8,7.5,6.1,9.1
  c2.3,0.7,3.8,3,3.3,5.4c-0.1,0.9-0.1,1.8,0,2.6c0.5,5.6,3.2,8.2,8.9,7.2c4.6-0.8,7.2,0,9.3,4.5c1.8,3.9,5,7.4,8.2,10.4
  c1.9,1.8,5.1,2.3,8,3.6c0.5-0.9,0.8-1.6,1.2-2.3c1.9-3.7,4.1-4.3,7.8-2.1c2.8,1.6,3.3,3.6,0.8,6.6c-3.3,4-3.8,7.9-2,12.7
  c2,5.3,2,10.7-1.5,15.7c-0.9,1.4-0.9,3.4-1.4,5.1c-1.1,3.6-2.4,4.3-6.2,3c-2.6-0.9-3.7,0.5-3.7,2.3c-0.1,3.7,0.3,7.3,1.2,10.9
  c1.4,4.4,3.2,8.6,5.5,12.6c1.2,2.3,3.5,4,5,6.1c1.9,2.7,3.5,5.6,5.2,8.4c0.6,1,1.3,1.9,2,2.9c1-0.9,2.3-1.6,2.9-2.7
  c1.5-2.8,2.6-5.8,4-8.7c1.6-3.3,3.5-6.6,5.5-9.6c0.9-1.2,3.2-2.3,4.4-1.9s2.3,2.5,2.5,4c0.4,3.3,0.2,6.7,0.4,10
  c0.2,0.9,0.5,1.7,1,2.4c4.7-4.5,6.3-4.4,11.4-0.5c0.9,0.7,2.9,1.1,3.7,0.6c3.9-2.3,7.5-4.8,11-7.6c1.5-1.3,2-3.6,3.2-5.3
  c0.9-0.9,1.9-1.8,2.9-2.5c0.9,1,1.7,2.1,2.3,3.3c0.3,1,0.1,2.1-0.4,3c-2,3.1-1.7,6.3-1.1,9.7c0.4,2.5,0.5,5.5-0.6,7.8
  c-4.4,9.5-4,20-7.3,29.7c-2.6,7.9-1.7,16.1-2.9,24c-1.2,8.1-3.4,16.2-5.3,24.2c-0.8,3.5-3.2,4.7-6.8,4.8c-4.1,0.1-8.2,0.8-12.3,0.8
  c-1.3-0.1-2.5-0.8-3.3-1.9c-1.5-3-3.2-6.1-3.7-9.3c-0.8-5.3-3.8-9-7.9-12C324.6,212.8,323.8,212.1,322.5,211.1z M56.5,159.9
  c3.2-3.9,4.1-7.9,4.6-12.1c0.3-2,0.8-4.3,3.2-4.2c5,0,8.3-3,12.1-5.2c4.5-2.6,9.1-5,13.8-7.2c5.2-2.4,6.7-1.7,9.5,3.1
  c1,1.7,2.6,3.6,4.3,4.2c4,1.2,8,2,12.1,2.4c3.2,0.3,6.5,0.2,9.7-0.1c1.1-0.3,2.1-1.1,2.6-2.2c0.3-0.7-0.4-2.5-1-2.7
  c-2.1-0.8-4.3-1.2-6.6-1.2c-2.7,0-5.6,1.4-8,0.7c-2.6-1-4.8-2.7-6.3-5c-1.7-2.4-3.2-4.1-6.3-4c-2.8,0.1-5.9-0.6-8.5,0.1
  c-6.6,1.9-8,1.7-11.7-4.2c-1.2-2.1-2.5-3.1-5.1-3.1c-1.2,0-3.1-0.6-3.6-1.5c-1.6-3.1-2.9-6.4-3.8-9.7c-1.1-3.8-3.3-5.5-7-4
  c-2.1,0.9-4,2.3-5.3,4.2c-5.8,9.3-9.9,19.2-8.2,30.5c0.6,4.3,2.3,6,6.6,5.8c3.5-0.1,4.6,0.8,4,4.1c-0.4,1.5-1.1,3-1.9,4.3
  C54.8,155,54.2,157.1,56.5,159.9L56.5,159.9z M128.3,31.2c-4.3,1.6-7.6,1.4-11.2-1.6c-5-4.3-12-1.9-13.1,4.5
  c-0.7,4.3-1.1,9-0.2,13.1c0.9,3.7,3.6,7.1,5.9,10.4c0.6,0.8,3.1,0.9,4.4,0.4c3.5-1.2,5.1-5,3.9-8.8c-0.5-1.1-1-2.3-1.6-3.3
  c-1-2-0.6-3.8,1.7-4C124.8,41.2,125.8,35.5,128.3,31.2z"/>
<path class="st0" d="M229.2,233.8c1.6-2,3.1-4,4.8-5.9s3.3-3.3,2.7-6.4c-0.6-2.9,8.6-11.7,11.6-11.9c0.4,0,0.7,0,1.1,0
  c9.2,0.9,17.7,3.3,25.1,9.1c2.8,2.3,5.4,4.9,7.6,7.8c2.1,2.6,5,4.6,7.2,7.2c-6.3-2.1-10.8-6.4-15.3-10.8c-1.9-1.8-4.1-3.3-6.6-4.2
  c-4.8-1.9-9.8-3.3-14.8-4.7c-1.6-0.3-3.2-0.4-4.8-0.3c0.9,3.5-3.4,2.6-4.4,5.2c-1.9,4.8-5.5,9-8.6,13.2c-1,1.3-3,1.9-4.6,2.8
  L229.2,233.8z"/>
<path class="st0" d="M371.2,113.3c0.3-1.4,0.8-2.8,1.3-4.2c3.2-6.5,6.3-13,9.7-19.4c0.7-1.4,2.2-3,3.6-3.3c1.7-0.3,3.6,0.7,5.4,1.2
  c-0.7,1.5-1.3,3.1-2,4.5c-2.2,4.5-4.6,8.9-6.8,13.4c-1.4,3-2.2,6.3-4,9.1c-1.2,1.4-2.9,2.2-4.7,2.2
  C372.7,116.8,371.9,114.4,371.2,113.3z"/>
<path class="st0" d="M327.9,46.6c-0.3,4.6,1.9,7,5.9,8.9c3.2,1.5,2.5,10.9-0.4,13c-1.3,0.9-2.9,1.1-4.3,0.6s-2.6-1.6-3.2-3
  c-0.5-1.7-0.5-3.5-0.2-5.2c0.5-3.3,1.2-6.4-0.5-9.7C324.2,49.4,324.9,47.4,327.9,46.6z"/>
<path class="st0" d="M56.5,159.9c-2.3-2.9-1.7-5-0.7-7.1c0.8-1.3,1.5-2.8,1.9-4.3c0.6-3.3-0.4-4.2-4-4.1c-4.3,0.1-6-1.5-6.6-5.8
  c-1.7-11.3,2.4-21.2,8.2-30.5c1.3-1.9,3.2-3.4,5.3-4.2c3.7-1.5,5.9,0.2,7,4c1,3.4,2.2,6.6,3.8,9.7c0.5,0.9,2.4,1.5,3.6,1.5
  c2.5,0,3.8,1,5.1,3.1c3.6,6,5.1,6.2,11.7,4.2c2.6-0.8,5.7,0,8.5-0.1c3.1-0.1,4.7,1.6,6.3,4c1.5,2.3,3.7,4,6.3,5
  c2.4,0.7,5.3-0.7,8-0.7c2.2,0.1,4.4,0.5,6.6,1.2c0.6,0.2,1.3,2,1,2.7c-0.5,1.1-1.4,1.9-2.6,2.2c-3.2,0.4-6.5,0.4-9.7,0.1
  c-4.1-0.4-8.2-1.2-12.1-2.4c-1.7-0.5-3.3-2.5-4.3-4.2c-2.9-4.8-4.3-5.5-9.5-3.1c-4.7,2.2-9.3,4.6-13.8,7.2
  c-3.8,2.2-7.2,5.2-12.1,5.2c-2.4,0-2.9,2.2-3.2,4.2C60.6,152,59.7,156,56.5,159.9z"/>
<path class="st0" d="M128.3,31.2c-2.5,4.3-3.5,10-10.2,10.7c-2.4,0.3-2.7,2.1-1.7,4c0.6,1.1,1.2,2.2,1.6,3.3
  c1.2,3.8-0.4,7.5-3.9,8.8c-1.3,0.4-3.8,0.3-4.4-0.4c-2.3-3.2-5.1-6.7-5.9-10.4c-0.9-4.2-0.6-8.8,0.2-13.1c1.1-6.4,8.1-8.8,13.1-4.5
  C120.6,32.6,123.9,32.8,128.3,31.2z"/>
<path d="M418.7,261.3H0V0h418.7V261.3z M322.5,211.1c1.2,1,2,1.6,2.9,2.3c4.1,3.1,7.1,6.7,7.9,12c0.5,3.2,2.2,6.3,3.7,9.3
  c0.7,1.1,2,1.8,3.3,1.9c4.1-0.1,8.2-0.8,12.3-0.8c3.6,0,6-1.3,6.8-4.8c1.9-8,4.1-16.1,5.3-24.2c1.1-8,0.2-16.2,2.9-24
  c3.3-9.7,2.9-20.2,7.3-29.7c1-2.2,1-5.3,0.5-7.8c-0.6-3.4-0.8-6.6,1.1-9.7c0.5-0.9,0.7-2,0.4-3c-0.6-1.2-1.4-2.3-2.3-3.3
  c-1.1,0.7-2.1,1.5-2.9,2.5c-1.2,1.7-1.7,4.1-3.2,5.3c-3.5,2.8-7.1,5.4-11,7.6c-0.8,0.5-2.8,0.1-3.7-0.6c-5.2-3.9-6.7-3.9-11.4,0.5
  c-0.5-0.7-0.8-1.6-1-2.4c-0.2-3.3,0-6.7-0.4-10c-0.2-1.5-1.4-3.7-2.5-4c-1.2-0.3-3.6,0.8-4.4,1.9c-2.1,3.1-3.9,6.3-5.6,9.6
  c-1.5,2.8-2.5,5.9-4,8.7c-0.6,1.1-1.9,1.8-2.9,2.6c-0.7-1-1.4-1.9-2-2.9c-1.8-2.8-3.4-5.7-5.2-8.4c-1.5-2.1-3.8-3.9-5-6.1
  c-2.2-4-4.1-8.3-5.5-12.7c-0.9-3.5-1.3-7.2-1.1-10.9c0-1.8,1.1-3.2,3.7-2.3c3.8,1.3,5.1,0.5,6.2-3c0.5-1.7,0.4-3.7,1.4-5.1
  c3.5-5,3.5-10.4,1.5-15.7c-1.8-4.8-1.4-8.7,2-12.7c2.5-3,2-5-0.8-6.6c-3.7-2.2-5.9-1.6-7.8,2.1c-0.4,0.7-0.8,1.5-1.2,2.4
  c-2.9-1.2-6.1-1.8-8-3.6c-3.2-3-6.4-6.5-8.2-10.4c-2.1-4.6-4.7-5.3-9.3-4.5c-5.7,0.9-8.4-1.6-8.9-7.2c-0.1-0.9-0.1-1.8,0-2.6
  c0.5-2.4-1-4.7-3.3-5.4c-4.3-1.6-6-5-6.1-9.1c-0.1-3.3-1.8-4.4-4.7-4.5c-3.2-0.1-6.5-0.2-9.7-0.1c-7.1,0.1-7.7,0.7-7.7,7.6
  c0,0.9,0,1.8,0.1,2.7c0,1.1,0.4,2.2,1.1,2.9s1.8,1.2,2.9,1.3c1.1,0.1,2.2,0.1,3.2,0.3c2.2,0.3,3,1.3,2.5,3.6s-1.6,5.3-0.7,7.2
  c2.7,5,4.8,10.3,6.2,15.8c0.1,0.3,0.2,0.6,0.3,0.9c-1.1,0-2.2,0-3.3-0.2c-8.5-2.3-17.4-3-26.1-1.9c-3.8,0.4-7.5,0.5-11.3,1
  c-2.2,0.3-3.2-0.4-3.9-2.5c-1.3-4-2.7-8-4.4-12c-3-7.6-7.3-14.7-12.7-20.8c-4.5-5-13-7.4-18-4c-5.7,3.9-11.6,5-18.3,4.4
  c-5.1-0.4-10.3-0.1-15.4-0.1c-0.6-5.6-0.6-6.1-5.2-6.4c-8.7-0.5-17.7-1.6-26.2-0.3c-8.6,1.2-16.8,0.7-25.2,0.8
  C77.7,22,68,21,58.3,20.7c-10.2-0.3-20.5-0.5-30.8-0.7c-5.4-0.1-8.2,2.1-8.1,7.4c0.1,4.1,1.1,8.2,1.6,11.2c0.9,0,1.8,0.1,2.7,0.3
  c0.6,4.2,1,8.3,1.5,12.5c0,0.3-0.1,1-0.3,1c-4.8,0.5-2.5,3.8-2,5.8c1.4,6.4,4.5,12.5,2.3,19.3c-0.2,0.6,0.7,1.5,1,2.3
  c0.5,1.1,0.9,2.2,1.1,3.4c1.7,16.6,3.7,33.2,4,50c0,2.4,0.8,4.9,1.2,7.3c0.7,3.4,1.2,6.9,1.5,10.4c0.6,10,0.8,20.1,1.3,30.1
  c0.6,11.4,1.4,22.9,2,34.3c0.3,5.6,0.4,11.3,0.5,16.9c0.1,3,1.3,4.7,4.5,4.6c6.7-0.1,13.3,0,20-0.3c2.1-0.1,4.6-0.7,6-2.1
  c3.2-3.2,9.1-3.8,9.6-9.5c0-0.4,0.6-0.9,1.1-1.1c5-2.6,9.2-6.8,15.4-6.7c0.9,0,1.7-0.4,2.3-1.1c2.4-3.9,5.5-5.6,10.8-2.2
  c-3.3-9.6-3.7-18.7-9.8-26.1c-3.3-4-2.9-4.5,1.5-7.3c2.3-1.4,4.6-2.8,6.8-4.3c7.1-4.8,14.1-9.8,21.4-14.3c4.1-2.6,8.8-4.4,14.4-7.1
  c-1,6.8,2.2,10.6,5.3,14.5c0.8,1,1.2,2.2,1.9,3.2c1.3,1.8,2.7,3.4,4.1,5.1l1.2-0.6c-0.3-1.5-0.5-3-0.8-4.4c-0.3-1.6-0.7-3.2-1-4.9
  c2.1-0.2,4.2-0.8,6.2-0.5c1.5,0.2,2.8,1.6,4.2,2.1c1.5,0.5,3,0.6,4.6,0.4c1-0.3,1.7-1.2,1.9-2.2c0-1.1-0.7-2.1-1.7-2.5
  c-6-1.8-7.5-7.1-10.2-11.6c-1.4-2.3-1.1-4,0.4-5.7c2.5-2.9,5-5.7,7.6-8.5c-4.5-3.2-4.8-6.1-1-11.7c3.3,2.2,4,8.5,8.9,7.2
  c3.8-0.9,8.2-1.3,11.4-3.9l-0.4-1.4l-8.5,2.3c-1.3-3.2-2.3-5.5-3.1-7.8c-0.8-2.2-2.1-2.3-4.2-1.8c-7.2,1.6-14.2,2.9-21.5-0.2
  c-3.6-1.5-5.6-2.6-4.7-6.7c0.6-2.5-0.9-3-3.1-2.9c-5.2,0.4-8.1,4-7.1,9c0.4,1.8,0.7,3.6,1.1,5.4l-1.4,0.6c-2.2-3.5-4.5-6.9-6.5-10.1
  c-2.4,0-4.8-0.1-7.3,0c-11.9,0.5-23.1-3.6-34.7-4.9c-0.5-0.1-1.1-0.2-1.6-0.4c-2.5-1-2.9-3.1-2.6-5.3c0.4-2.7,2.4-1.4,4.2-1.5
  c2.2,0,5.1-0.4,6.4-1.8c3.8-4.1,8.6-5.5,13.8-6.5c4.6-0.8,9.1-1.9,13.7-2.9c7.9-1.6,10-8.2,4.8-14.3c-0.8-1.1-1.1-2.4-1-3.8
  c0.3-3.8,0.9-7.6,1.3-11.5c0.7-6,0.8-12,2-17.8c2.2-10.5,8.7-16.4,19.5-16.1c4.9,0.2,9.8-0.3,14.6,0.2c7,0.6,13.6-0.3,19.7-4
  c3.9-2.4,8.3-2.3,11.5,0.9c4,4,8.1,8.2,10.6,13.1c3.7,7.4,6.3,15.4,8.8,23.2c1,3,2,3.5,4.9,2.7c4.3-1.3,8.7-2.2,13.1-2.8
  c10.8-1.3,21.7,0.5,31.5,5.1c8.9,4.2,11.1,12,5.4,18.5c-3,3.4-6.6,6.8-10.6,8.8c-9.1,4.4-18.6,8.2-28.2,11.9
  c-5.5,2.1-5.5,1.8-5.1,7.9c0.2,2.2,0,4.5-0.7,6.6c-0.5,1.3-2.5,2.1-3.9,3.1c-0.6-1.5-1.7-3-1.6-4.5c0.6-6.4-2.1-11.7-5.4-16.9
  c-0.6-1-2.2-1.5-3.4-2.3c-0.3,1.6-0.1,3.3,0.5,4.8c1.5,4.8,3.4,9.5-1.5,13.7c-0.4,0.3,0.2,2.5,1,3.4c3.2,4,6.6,7.9,6,13.5
  c-0.2,2.5,1.3,3,3.4,2.8c12.9-1,25.3,2.2,37.7,5.2c8.8,2.1,17.2,5.7,25.3,9.6c-5.8,4.9-11.4,9.3-16.6,14.1
  c-3.4,3.3-6.6,6.9-9.5,10.7c-1,1.2-2.3,3.4,0.1,4.6c2.9,1.4,6.1,2.4,9.1,3.5c0.1-4.8-4.6-4-6.2-6.5c1.6-4,4.6-3.5,7.7-2.6
  c6,1.7,11.9,3.8,18,5.2c5.8,1.3,11.7,1.8,17.5,3c9.4,1.9,16.8,6.1,18.5,16.5c0.5,2.8,1.4,5.5,2.6,8.1
  C320.4,215,321.5,213.4,322.5,211.1z M229.2,233.8l1.1,1.2c1.6-0.9,3.6-1.5,4.6-2.8c3.2-4.2,6.7-8.4,8.6-13.2c1-2.6,5.4-1.7,4.4-5.2
  c1.6-0.1,3.2,0,4.8,0.3c5,1.4,10,2.9,14.8,4.7c2.4,1,4.7,2.4,6.6,4.2c4.5,4.4,9,8.7,15.3,10.8c-2.2-2.6-5.2-4.6-7.2-7.2
  c-2.2-2.9-4.7-5.6-7.6-7.8c-7.5-5.8-16-8.2-25.1-9.1c-0.4,0-0.7,0-1.1,0c-3.1,0.1-12.2,9-11.6,11.9c0.6,3.1-1,4.5-2.7,6.4
  C232.3,229.8,230.8,231.9,229.2,233.8z M371.2,113.3c0.7,1.1,1.5,3.5,2.6,3.6c1.8,0.1,3.6-0.7,4.7-2.2c1.7-2.8,2.5-6.1,4-9.1
  c2.1-4.5,4.5-8.9,6.8-13.4c0.7-1.5,1.4-3,2-4.5c-1.8-0.5-3.8-1.5-5.4-1.2c-1.4,0.3-2.9,1.9-3.6,3.3c-3.4,6.4-6.5,12.9-9.7,19.4
  C372,110.5,371.5,111.9,371.2,113.3z M327.9,46.6c-3,0.9-3.7,2.8-2.8,4.6c1.7,3.3,1.1,6.4,0.5,9.7c-0.3,1.7-0.3,3.5,0.2,5.2
  c0.5,1.4,1.7,2.6,3.2,3s3.1,0.2,4.3-0.6c2.9-2.1,3.6-11.5,0.4-13C329.8,53.6,327.6,51.2,327.9,46.6z"/>
<path class="st0" d="M322.5,211.1c-1.1,2.2-2.2,3.9-3.5,0.9c-1.2-2.6-2-5.3-2.5-8.1c-1.8-10.4-9.2-14.5-18.5-16.5
  c-5.8-1.2-11.8-1.7-17.5-3c-6.1-1.4-12-3.4-18-5.2c-3.1-0.9-6.1-1.4-7.7,2.6c1.6,2.5,6.2,1.7,6.2,6.5c-3-1.2-6.2-2.1-9.1-3.6
  c-2.4-1.2-1.1-3.3-0.1-4.6c2.9-3.8,6.1-7.4,9.5-10.7c5.2-4.8,10.8-9.2,16.6-14.1c-8.2-3.9-16.5-7.5-25.3-9.6
  c-12.3-3-24.7-6.1-37.7-5.2c-2.1,0.1-3.6-0.3-3.4-2.8c0.5-5.6-2.8-9.5-6-13.5c-0.7-0.9-1.4-3-1-3.4c4.9-4.2,2.9-9,1.5-13.7
  c-0.6-1.5-0.8-3.2-0.5-4.8c1.1,0.8,2.7,1.2,3.4,2.3c3.2,5.1,5.9,10.5,5.4,16.9c-0.1,1.4,1,3,1.6,4.5c1.3-1,3.3-1.8,3.9-3.1
  c0.7-2.1,1-4.4,0.7-6.6c-0.4-6.1-0.4-5.8,5.1-7.9c9.5-3.7,19-7.4,28.2-11.9c4.1-2,7.6-5.4,10.6-8.8c5.7-6.5,3.5-14.2-5.4-18.5
  c-9.8-4.6-20.7-6.4-31.5-5.1c-4.4,0.6-8.8,1.5-13.1,2.8c-2.9,0.8-4,0.3-4.9-2.7c-2.6-7.9-5.1-15.9-8.8-23.2
  c-2.5-4.9-6.6-9.1-10.6-13.1c-3.2-3.2-7.6-3.3-11.5-0.9c-6.1,3.8-12.6,4.7-19.7,4c-4.8-0.4-9.7,0-14.6-0.2
  c-10.8-0.3-17.2,5.6-19.5,16.1c-1.2,5.8-1.4,11.9-2,17.8c-0.4,3.8-1,7.6-1.3,11.5c-0.1,1.3,0.2,2.7,1,3.8c5.2,6.1,3.1,12.7-4.8,14.3
  c-4.6,0.9-9.1,2-13.7,2.8c-5.2,0.9-10,2.4-13.8,6.5c-1.3,1.4-4.2,1.8-6.4,1.8c-1.8,0-3.8-1.2-4.2,1.5c-0.3,2.1,0.1,4.3,2.6,5.3
  c0.5,0.2,1,0.3,1.6,0.4c11.6,1.2,22.8,5.3,34.7,4.9c2.5-0.1,4.9,0,7.3,0c2,3.1,4.3,6.6,6.5,10.1l1.4-0.6c-0.4-1.8-0.7-3.6-1.1-5.4
  c-1-5.1,1.8-8.7,7.1-9c2.2-0.1,3.7,0.4,3.1,2.9c-0.9,4,1.1,5.1,4.7,6.7c7.4,3.1,14.4,1.8,21.5,0.2c2.1-0.5,3.4-0.4,4.2,1.8
  c0.8,2.4,1.9,4.7,3.1,7.8l8.5-2.3l0.4,1.3c-3.3,2.5-7.7,2.9-11.4,3.9c-5,1.2-5.6-5-8.9-7.2c-3.9,5.6-3.6,8.5,1,11.7
  c-2.5,2.8-5.1,5.6-7.6,8.5c-1.5,1.8-1.7,3.4-0.4,5.7c2.6,4.5,4.2,9.8,10.2,11.6c0.9,0.5,1.5,1.4,1.6,2.4c-0.2,1-1,1.8-1.9,2.1
  c-1.5,0.2-3.1,0.1-4.5-0.3c-1.5-0.5-2.8-1.9-4.2-2.1c-2-0.2-4.1,0.3-6.2,0.5c0.3,1.6,0.7,3.2,1,4.9c0.3,1.5,0.5,3,0.8,4.4l-1.2,0.6
  c-1.4-1.7-2.8-3.4-4.1-5.1c-0.7-1-1.1-2.2-1.9-3.2c-3.1-3.9-6.3-7.7-5.3-14.5c-5.6,2.8-10.3,4.6-14.4,7.2
  c-7.3,4.5-14.3,9.5-21.4,14.3c-2.2,1.5-4.5,2.9-6.8,4.3c-4.4,2.8-4.8,3.3-1.5,7.3c6.1,7.3,6.6,16.5,9.8,26.1
  c-5.3-3.4-8.3-1.7-10.8,2.2c-0.6,0.7-1.4,1.1-2.3,1.1c-6.2-0.1-10.5,4-15.4,6.7c-0.5,0.2-1,0.7-1.1,1.1c-0.5,5.8-6.4,6.4-9.6,9.5
  c-1.3,1.3-3.9,2-6,2.1c-6.6,0.3-13.3,0.2-20,0.3c-3.2,0.1-4.5-1.6-4.5-4.6c-0.1-5.6-0.2-11.3-0.5-16.9c-0.6-11.4-1.4-22.8-2-34.3
  c-0.5-10-0.7-20.1-1.3-30.1c-0.3-3.5-0.8-7-1.5-10.4c-0.4-2.4-1.2-4.9-1.2-7.3c-0.3-16.8-2.2-33.4-4-50c-0.2-1.2-0.6-2.3-1.1-3.4
  c-0.2-0.8-1.2-1.7-1-2.3c2.2-6.8-0.9-13-2.3-19.3c-0.5-2-2.8-5.3,2-5.8c0.1,0,0.3-0.6,0.3-1c-0.4-4.2-0.9-8.4-1.5-12.5
  c-0.9-0.2-1.8-0.3-2.7-0.3c-0.5-3.1-1.5-7.1-1.6-11.2c-0.1-5.4,2.7-7.6,8.1-7.5c10.2,0.2,20.5,0.3,30.8,0.7
  c9.7,0.3,19.4,1.4,29.1,1.2c8.4-0.1,16.7,0.4,25.2-0.8s17.5-0.2,26.2,0.3c4.6,0.3,4.6,0.8,5.2,6.4c5.1,0,10.3-0.3,15.4,0.1
  c6.7,0.6,12.6-0.5,18.3-4.4c4.9-3.4,13.5-1,18,4c5.4,6.2,9.7,13.2,12.7,20.8c1.6,3.9,3.1,7.9,4.4,11.9c0.7,2.1,1.7,2.8,3.9,2.5
  c3.8-0.4,7.5-0.5,11.3-1c8.8-1,17.7-0.3,26.2,2c1.1,0.2,2.2,0.2,3.3,0.2c-0.1-0.3-0.2-0.6-0.3-0.9c-1.4-5.5-3.5-10.8-6.2-15.8
  c-0.9-1.8,0.2-4.8,0.7-7.2c0.6-2.4-0.3-3.4-2.5-3.6c-1.1-0.1-2.2-0.1-3.2-0.3c-1.1,0-2.1-0.5-2.9-1.3c-0.8-0.8-1.2-1.9-1.1-2.9
  c-0.1-0.9-0.1-1.8-0.1-2.7c0.1-6.9,0.6-7.4,7.7-7.5c3.2-0.1,6.5,0,9.7,0.1c2.9,0.1,4.6,1.2,4.7,4.5c0.1,4.1,1.8,7.5,6.1,9.1
  c2.3,0.7,3.8,3,3.3,5.4c-0.1,0.9-0.1,1.8,0,2.6c0.5,5.6,3.2,8.2,8.9,7.2c4.6-0.8,7.2,0,9.3,4.5c1.8,3.9,5,7.4,8.2,10.4
  c1.9,1.8,5.1,2.3,8,3.6c0.5-0.9,0.8-1.6,1.2-2.3c1.9-3.7,4.1-4.3,7.8-2.1c2.8,1.6,3.3,3.6,0.8,6.6c-3.3,4-3.8,7.9-2,12.7
  c2,5.3,2,10.7-1.5,15.7c-0.9,1.4-0.9,3.4-1.4,5.1c-1.1,3.6-2.4,4.3-6.2,3c-2.6-0.9-3.7,0.5-3.7,2.3c-0.1,3.7,0.3,7.3,1.2,10.9
  c1.4,4.4,3.2,8.6,5.5,12.6c1.2,2.3,3.5,4,5,6.1c1.9,2.7,3.5,5.6,5.2,8.4c0.6,1,1.3,1.9,2,2.9c1-0.9,2.3-1.6,2.9-2.7
  c1.5-2.8,2.6-5.8,4-8.7c1.6-3.3,3.5-6.6,5.5-9.6c0.9-1.2,3.2-2.3,4.4-1.9s2.3,2.5,2.5,4c0.4,3.3,0.2,6.7,0.4,10
  c0.2,0.9,0.5,1.7,1,2.4c4.7-4.5,6.3-4.4,11.4-0.5c0.9,0.7,2.9,1.1,3.7,0.6c3.9-2.3,7.5-4.8,11-7.6c1.5-1.3,2-3.6,3.2-5.3
  c0.9-0.9,1.9-1.8,2.9-2.5c0.9,1,1.7,2.1,2.3,3.3c0.3,1,0.1,2.1-0.4,3c-2,3.1-1.7,6.3-1.1,9.7c0.4,2.5,0.5,5.5-0.6,7.8
  c-4.4,9.5-4,20-7.3,29.7c-2.6,7.9-1.7,16.1-2.9,24c-1.2,8.1-3.4,16.2-5.3,24.2c-0.8,3.5-3.2,4.7-6.8,4.8c-4.1,0.1-8.2,0.8-12.3,0.8
  c-1.3-0.1-2.5-0.8-3.3-1.9c-1.5-3-3.2-6.1-3.7-9.3c-0.8-5.3-3.8-9-7.9-12C324.6,212.8,323.8,212.1,322.5,211.1z M56.5,159.9
  c3.2-3.9,4.1-7.9,4.6-12.1c0.3-2,0.8-4.3,3.2-4.2c5,0,8.3-3,12.1-5.2c4.5-2.6,9.1-5,13.8-7.2c5.2-2.4,6.7-1.7,9.5,3.1
  c1,1.7,2.6,3.6,4.3,4.2c4,1.2,8,2,12.1,2.4c3.2,0.3,6.5,0.2,9.7-0.1c1.1-0.3,2.1-1.1,2.6-2.2c0.3-0.7-0.4-2.5-1-2.7
  c-2.1-0.8-4.3-1.2-6.6-1.2c-2.7,0-5.6,1.4-8,0.7c-2.6-1-4.8-2.7-6.3-5c-1.7-2.4-3.2-4.1-6.3-4c-2.8,0.1-5.9-0.6-8.5,0.1
  c-6.6,1.9-8,1.7-11.7-4.2c-1.2-2.1-2.5-3.1-5.1-3.1c-1.2,0-3.1-0.6-3.6-1.5c-1.6-3.1-2.9-6.4-3.8-9.7c-1.1-3.8-3.3-5.5-7-4
  c-2.1,0.9-4,2.3-5.3,4.2c-5.8,9.3-9.9,19.2-8.2,30.5c0.6,4.3,2.3,6,6.6,5.8c3.5-0.1,4.6,0.8,4,4.1c-0.4,1.5-1.1,3-1.9,4.3
  C54.8,155,54.2,157.1,56.5,159.9L56.5,159.9z M128.3,31.2c-4.3,1.6-7.6,1.4-11.2-1.6c-5-4.3-12-1.9-13.1,4.5
  c-0.7,4.3-1.1,9-0.2,13.1c0.9,3.7,3.6,7.1,5.9,10.4c0.6,0.8,3.1,0.9,4.4,0.4c3.5-1.2,5.1-5,3.9-8.8c-0.5-1.1-1-2.3-1.6-3.3
  c-1-2-0.6-3.8,1.7-4C124.8,41.2,125.8,35.5,128.3,31.2z"/>
<path class="st0" d="M229.2,233.8c1.6-2,3.1-4,4.8-5.9s3.3-3.3,2.7-6.4c-0.6-2.9,8.6-11.7,11.6-11.9c0.4,0,0.7,0,1.1,0
  c9.2,0.9,17.7,3.3,25.1,9.1c2.8,2.3,5.4,4.9,7.6,7.8c2.1,2.6,5,4.6,7.2,7.2c-6.3-2.1-10.8-6.4-15.3-10.8c-1.9-1.8-4.1-3.3-6.6-4.2
  c-4.8-1.9-9.8-3.3-14.8-4.7c-1.6-0.3-3.2-0.4-4.8-0.3c0.9,3.5-3.4,2.6-4.4,5.2c-1.9,4.8-5.5,9-8.6,13.2c-1,1.3-3,1.9-4.6,2.8
  L229.2,233.8z"/>
<path class="st0" d="M371.2,113.3c0.3-1.4,0.8-2.8,1.3-4.2c3.2-6.5,6.3-13,9.7-19.4c0.7-1.4,2.2-3,3.6-3.3c1.7-0.3,3.6,0.7,5.4,1.2
  c-0.7,1.5-1.3,3.1-2,4.5c-2.2,4.5-4.6,8.9-6.8,13.4c-1.4,3-2.2,6.3-4,9.1c-1.2,1.4-2.9,2.2-4.7,2.2
  C372.7,116.8,371.9,114.4,371.2,113.3z"/>
<path class="st0" d="M327.9,46.6c-0.3,4.6,1.9,7,5.9,8.9c3.2,1.5,2.5,10.9-0.4,13c-1.3,0.9-2.9,1.1-4.3,0.6s-2.6-1.6-3.2-3
  c-0.5-1.7-0.5-3.5-0.2-5.2c0.5-3.3,1.2-6.4-0.5-9.7C324.2,49.4,324.9,47.4,327.9,46.6z"/>
<path d="M56.5,159.9c-2.3-2.9-1.7-5-0.7-7.1c0.8-1.3,1.5-2.8,1.9-4.3c0.6-3.3-0.4-4.2-4-4.1c-4.3,0.1-6-1.5-6.6-5.8
  c-1.7-11.3,2.4-21.2,8.2-30.5c1.3-1.9,3.2-3.4,5.3-4.2c3.7-1.5,5.9,0.2,7,4c1,3.4,2.2,6.6,3.8,9.7c0.5,0.9,2.4,1.5,3.6,1.5
  c2.5,0,3.8,1,5.1,3.1c3.6,6,5.1,6.2,11.7,4.2c2.6-0.8,5.7,0,8.5-0.1c3.1-0.1,4.7,1.6,6.3,4c1.5,2.3,3.7,4,6.3,5
  c2.4,0.7,5.3-0.7,8-0.7c2.2,0.1,4.4,0.5,6.6,1.2c0.6,0.2,1.3,2,1,2.7c-0.5,1.1-1.4,1.9-2.6,2.2c-3.2,0.4-6.5,0.4-9.7,0.1
  c-4.1-0.4-8.2-1.2-12.1-2.4c-1.7-0.5-3.3-2.5-4.3-4.2c-2.9-4.8-4.3-5.5-9.5-3.1c-4.7,2.2-9.3,4.6-13.8,7.2
  c-3.8,2.2-7.2,5.2-12.1,5.2c-2.4,0-2.9,2.2-3.2,4.2C60.6,152,59.7,156,56.5,159.9z"/>
<path d="M128.3,31.2c-2.5,4.3-3.5,10-10.2,10.7c-2.4,0.3-2.7,2.1-1.7,4c0.6,1.1,1.2,2.2,1.6,3.3c1.2,3.8-0.4,7.5-3.9,8.8
  c-1.3,0.4-3.8,0.3-4.4-0.4c-2.3-3.2-5.1-6.7-5.9-10.4c-0.9-4.2-0.6-8.8,0.2-13.1c1.1-6.4,8.1-8.8,13.1-4.5
  C120.6,32.6,123.9,32.8,128.3,31.2z"/>
</svg>
